<?xml version="1.0" encoding="utf-8"?>
<!-- Generator: Adobe Illustrator 26.0.2, SVG Export Plug-In . SVG Version: 6.00 Build 0)  -->
<svg version="1.1" id="cap" xmlns="http://www.w3.org/2000/svg" xmlns:xlink="http://www.w3.org/1999/xlink" x="0px" y="0px"
	 viewBox="0 0 1280 640" style="enable-background:new 0 0 1280 640;" xml:space="preserve">
<style type="text/css">
	.st0{fill:#292B2A;}
	.st1{fill:#F6F7F8;}
	.st2{fill:#292B2A;stroke:#F6F7F8;stroke-width:5;stroke-miterlimit:10;}
	.st3{fill:#F6F7F8;stroke:#292B2A;stroke-width:5;stroke-miterlimit:10;}
	.st4{fill:#292A2B;stroke:#292A2B;stroke-width:5;stroke-miterlimit:10;}
</style>
<path class="st0" d="M960,0c0,0-426.67,426.67-640,640h960V0H960z"/>
<path class="st1" d="M320,640c0,0,426.67-426.67,640-640H0v640H320z"/>
<g>
	<g>
		<path class="st2" d="M530.64,429.36c27.91,27.91,66.53,45.11,109.36,45.11c85.66,0,154.47-68.81,154.47-154.47
			c0-8.43,0-15.45-1.4-23.87c-16.85,23.87-44.93,39.32-75.83,39.32c-25.28,0-48.45-10.53-65.3-27.39"/>
		<path class="st3" d="M651.94,308.06c-16.85-16.85-27.39-40.03-27.39-65.3c0-30.89,15.45-58.98,39.32-75.83
			c-8.43-1.4-15.45-1.4-23.87-1.4l0,0c-85.66,0-154.47,68.81-154.47,154.47c0,42.83,17.2,81.45,45.11,109.36"/>
		<polygon class="st1" points="744.22,374.09 739.33,372.97 735.64,376.36 735.2,371.37 730.84,368.9 735.45,366.94 736.45,362.02 
			739.74,365.8 744.72,365.24 742.14,369.53 		"/>
		<polygon class="st1" points="665.95,450.02 648.15,440.02 629.82,449.02 633.83,429 619.61,414.35 639.89,411.97 649.43,393.93 
			657.95,412.47 678.06,415.97 663.05,429.81 		"/>
		<polygon class="st1" points="658.21,349.91 647.84,348.28 640.61,355.89 638.96,345.52 629.49,341 638.84,336.24 640.21,325.82 
			647.64,333.24 657.96,331.33 653.2,340.68 		"/>
		<polygon class="st4" points="553.09,351.62 542.17,329.51 517.77,325.96 535.42,308.75 531.26,284.44 553.09,295.92 
			574.91,284.44 570.75,308.75 588.4,325.96 564,329.51 		"/>
		<polygon class="st4" points="598.11,229.65 591.5,224.64 583.62,227.24 586.35,219.41 581.43,212.72 589.73,212.89 594.57,206.16 
			596.97,214.09 604.88,216.62 598.07,221.36 		"/>
	</g>
	<path class="st3" d="M482.91,126.25c-10.47-10.47-26.18-10.47-36.65,0c-10.47,10.47-10.47,26.18,0,36.65l26.18,26.18
		c10.47,10.47,28.8,10.47,36.65,0c7.85-10.47,10.47-26.18,0-36.65L482.91,126.25z"/>
	<path class="st3" d="M378.18,346.18h52.36c15.71,0,26.18-10.47,26.18-26.18c0-15.71-10.47-26.18-26.18-26.18h-52.36
		c-13.09,0-26.18,10.47-26.18,26.18S365.09,346.18,378.18,346.18z"/>
	<path class="st3" d="M511.71,487.56c10.47-10.47,10.47-26.18,0-36.65c-10.47-10.47-26.18-10.47-36.65,0l-28.8,26.18
		c-10.47,10.47-10.47,26.18,0,36.65c10.47,10.47,26.18,10.47,36.65,0L511.71,487.56z"/>
	<path class="st2" d="M613.82,529.45v52.36c0,13.09,10.47,26.18,26.18,26.18s26.18-13.09,26.18-26.18v-52.36
		c0-13.09-10.47-26.18-26.18-26.18C624.29,503.27,613.82,516.36,613.82,529.45z"/>
	<path class="st2" d="M807.56,450.91c-10.47-10.47-26.18-10.47-36.65,0c-10.47,10.47-10.47,26.18,0,36.65l28.8,28.8
		c10.47,10.47,26.18,10.47,36.65,0c10.47-10.47,10.47-26.18,0-36.65L807.56,450.91z"/>
	<path class="st2" d="M849.45,346.18h52.36c13.09,0,26.18-10.47,26.18-26.18c0-15.71-13.09-26.18-26.18-26.18h-52.36
		c-13.09,0-26.18,10.47-26.18,26.18C823.27,335.71,836.36,346.18,849.45,346.18z"/>
	<path class="st2" d="M833.75,162.91c10.47-10.47,10.47-26.18,0-36.65s-26.18-10.47-36.65,0l-26.18,26.18
		c-10.47,10.47-10.47,26.18,0,36.65c10.47,10.47,26.18,10.47,36.65,0L833.75,162.91z"/>
	<path class="st3" d="M613.82,58.18v52.36c0,15.71,10.47,26.18,26.18,26.18s26.18-10.47,26.18-26.18V58.18
		C666.18,45.09,655.71,32,640,32S613.82,45.09,613.82,58.18z"/>
</g>
</svg>
