<?xml version="1.0" encoding="utf-8"?>
<!-- Generator: Adobe Illustrator 26.0.2, SVG Export Plug-In . SVG Version: 6.00 Build 0)  -->
<svg version="1.1" id="icon" xmlns="http://www.w3.org/2000/svg" xmlns:xlink="http://www.w3.org/1999/xlink" x="0px" y="0px"
	 viewBox="0 0 1000 1000" style="enable-background:new 0 0 1000 1000;" xml:space="preserve">
<style type="text/css">
	.st0{display:none;fill:#292A2B;}
	.st1{display:none;fill:#F6F7F8;}
	.st2{fill:#292B2A;}
	.st3{fill:#F6F7F8;}
	.st4{fill:#292B2A;stroke:#F6F7F8;stroke-width:5;stroke-miterlimit:10;}
	.st5{fill:#F6F7F8;stroke:#292B2A;stroke-width:5;stroke-miterlimit:10;}
	.st6{fill:#292A2B;stroke:#292A2B;stroke-width:5;stroke-miterlimit:10;}
</style>
<rect class="st0" width="1000" height="1000"/>
<rect class="st1" width="1000" height="1000"/>
<polyline class="st2" points="1000,0 0,1000 1000,1000 "/>
<polyline class="st3" points="0,1000 1000,0 0,0 "/>
<g>
	<g>
		<path class="st4" d="M329.13,670.87c43.61,43.61,103.95,70.49,170.87,70.49c133.85,0,241.36-107.52,241.36-241.36
			c0-13.17,0-24.14-2.19-37.3c-26.33,37.3-70.21,61.44-118.49,61.44c-39.5,0-75.7-16.46-102.03-42.79"/>
		<path class="st5" d="M518.65,481.35c-26.33-26.33-42.79-62.54-42.79-102.03c0-48.27,24.14-92.16,61.44-118.49
			c-13.17-2.19-24.14-2.19-37.3-2.19l0,0c-133.85,0-241.36,107.52-241.36,241.36c0,66.92,26.88,127.26,70.49,170.87"/>
		<polygon class="st3" points="662.84,584.52 655.21,582.76 649.44,588.06 648.75,580.26 641.93,576.4 649.14,573.34 650.7,565.66 
			655.84,571.57 663.62,570.68 659.59,577.39 		"/>
		<polygon class="st3" points="540.54,703.15 512.73,687.53 484.1,701.59 490.36,670.31 468.14,647.42 499.83,643.71 514.73,615.51 
			528.05,644.49 559.47,649.96 536.02,671.58 		"/>
		<polygon class="st3" points="528.45,546.74 512.25,544.18 500.96,556.08 498.38,539.88 483.58,532.82 498.19,525.37 500.33,509.1 
			511.93,520.69 528.06,517.7 520.62,532.32 		"/>
		<polygon class="st6" points="364.2,549.41 347.14,514.86 309.01,509.32 336.6,482.42 330.09,444.44 364.2,462.37 398.3,444.44 
			391.79,482.42 419.38,509.32 381.25,514.86 		"/>
		<polygon class="st6" points="434.55,358.83 424.22,351 411.91,355.07 416.17,342.83 408.49,332.38 421.45,332.64 429.02,322.12 
			432.77,334.52 445.12,338.47 434.48,345.87 		"/>
	</g>
	<path class="st5" d="M254.55,197.27c-16.36-16.36-40.91-16.36-57.27,0s-16.36,40.91,0,57.27l40.91,40.91
		c16.36,16.36,45,16.36,57.27,0c12.27-16.36,16.36-40.91,0-57.27L254.55,197.27z"/>
	<path class="st5" d="M90.91,540.91h81.82c24.55,0,40.91-16.36,40.91-40.91s-16.36-40.91-40.91-40.91H90.91
		C70.45,459.09,50,475.45,50,500S70.45,540.91,90.91,540.91z"/>
	<path class="st5" d="M299.55,761.82c16.36-16.36,16.36-40.91,0-57.27c-16.36-16.36-40.91-16.36-57.27,0l-45,40.91
		c-16.36,16.36-16.36,40.91,0,57.27c16.36,16.36,40.91,16.36,57.27,0L299.55,761.82z"/>
	<path class="st4" d="M459.09,827.27v81.82c0,20.45,16.36,40.91,40.91,40.91s40.91-20.45,40.91-40.91v-81.82
		c0-20.45-16.36-40.91-40.91-40.91S459.09,806.82,459.09,827.27z"/>
	<path class="st4" d="M761.82,704.55c-16.36-16.36-40.91-16.36-57.27,0c-16.36,16.36-16.36,40.91,0,57.27l45,45
		c16.36,16.36,40.91,16.36,57.27,0c16.36-16.36,16.36-40.91,0-57.27L761.82,704.55z"/>
	<path class="st4" d="M827.27,540.91h81.82c20.45,0,40.91-16.36,40.91-40.91s-20.45-40.91-40.91-40.91h-81.82
		c-20.45,0-40.91,16.36-40.91,40.91S806.82,540.91,827.27,540.91z"/>
	<path class="st4" d="M802.73,254.55c16.36-16.36,16.36-40.91,0-57.27c-16.36-16.36-40.91-16.36-57.27,0l-40.91,40.91
		c-16.36,16.36-16.36,40.91,0,57.27c16.36,16.36,40.91,16.36,57.27,0L802.73,254.55z"/>
	<path class="st5" d="M459.09,90.91v81.82c0,24.55,16.36,40.91,40.91,40.91s40.91-16.36,40.91-40.91V90.91
		C540.91,70.45,524.55,50,500,50S459.09,70.45,459.09,90.91z"/>
</g>
</svg>
